<?xml version="1.0" encoding="utf-8"?>
<!-- Generator: Adobe Illustrator 22.1.0, SVG Export Plug-In . SVG Version: 6.00 Build 0)  -->
<svg version="1.1" id="Calque_1" xmlns="http://www.w3.org/2000/svg" xmlns:xlink="http://www.w3.org/1999/xlink" x="0px" y="0px"
	 viewBox="0 0 183 176" style="enable-background:new 0 0 183 176;" xml:space="preserve">
<style type="text/css">
	.st0{fill:#EFEDED;}
	.st1{fill:none;stroke:#D3D3D3;stroke-miterlimit:10;}
</style>
<path class="st0" d="M91.3,106.7c20.4,0,36.8-16.5,36.8-36.9S111.6,33,91.3,33c-20.4,0-36.9,16.5-36.9,36.8
	C54.4,90.3,70.9,106.7,91.3,106.7z M150.8,136.7c-5.8-13.6-18.6-19.4-34.3-19.4h-2.7c-6.8,3.3-14.4,5.3-22.5,5.3s-15.7-2-22.5-5.3
	H66c-13.7,0-26.7,9-33.4,19.9c0,0,21.1,25.9,58.7,25.9C131.4,163.1,150.8,136.7,150.8,136.7z"/>
<ellipse class="st1" cx="91.5" cy="88" rx="81.5" ry="78.4"/>
</svg>
