<?xml version="1.0" encoding="utf-8"?>
<!-- Generator: Adobe Illustrator 22.1.0, SVG Export Plug-In . SVG Version: 6.00 Build 0)  -->
<svg version="1.1" id="Calque_1" xmlns="http://www.w3.org/2000/svg" xmlns:xlink="http://www.w3.org/1999/xlink" x="0px" y="0px"
	 viewBox="0 0 496 227" style="enable-background:new 0 0 496 227;" xml:space="preserve">
<style type="text/css">
	.st0{fill:#00AEB3;}
	.st1{fill:#F9B53F;}
	.st2{font-family:'Pacifico-Regular';}
	.st3{font-size:28.5454px;}
</style>
<path class="st0" d="M295.2,7.3c-6.3-2-13.9-3.2-23-3.2c-0.5,0-0.9,0-1.4,0c-27,0.4-39.5,6.8-62.3,23.3c0,0-10-10.1-27.2-14.4
	c-1.9-0.5-3.6-0.9-5.1-1.1c-4.1-0.7-8.5-1-13.2-0.9c0,0-2.2,0.5-1.7,1.8c0.5,1.2,0.8,6.7,7.7,6.7c0.5,0,1,0,1.6,0c0.1,0,0.2,0,0.3,0
	c0.9,0,1.8,0,2.7,0.1c4.7,0.4,13.1,2.5,27.9,12.9C191.2,39.8,184,43,179,44.4c-3.8,0.5-7.2,0.9-9,1.1c-0.6,0-1.2,0-1.9,0.1v0.1
	c-0.1,0-0.1,0.1-0.1,0.1c-3.5,0.9-5.4,4.4-6.1,5.2c-0.8,1,0.6,2,0.6,2c21.8,4.8,45.9-14.5,45.9-14.5l0.2-0.9
	c22.8,16.6,35.3,23,62.3,23.3c0.5,0,0.9,0,1.4,0c11.8,0,21-2.1,28.3-5.1c19.8-7.7,31.8-22.2,31.8-22.2v-2.1
	C322.2,17.4,306.8,10.6,295.2,7.3z M280.2,52.7c-2.5,0.2-5.1,0.4-8,0.4c-0.4,0-0.8,0-1.2,0c-24-0.3-34.5-5.4-55.4-20.5
	C236.5,17.5,247,12.4,271,12.1c0.4,0,0.8,0,1.2,0c2.8,0,5.4,0.2,7.8,0.4l0.4,39.9C280.3,52.5,280.3,52.6,280.2,52.7z M305.3,41.2
	c2.4,0,4.4-1,5.7-2.6c-2.3,3.7-6.7,6.2-11.8,6.2c-7.5,0-13.5-5.5-13.5-12.3s6.1-12.2,13.5-12.2c7.5,0,13.6,5.5,13.6,12.2
	c0,1.1-0.2,2.3-0.5,3.3c0.1-0.4,0.1-0.7,0.1-1c0-3.5-3.2-6.4-7.1-6.4s-7.1,2.9-7.1,6.4S301.4,41.2,305.3,41.2z"/>
<g>
	<path class="st0" d="M398.9,135.1c-0.4-0.6-1-0.9-1.7-0.9c-0.8,0-1.5,0.3-2.3,1c-2.5,2.3-4.5,3.5-6.1,3.5c-1.4,0-2.1-0.9-2.1-2.8
		c0-0.5,0.2-1.9,0.7-4c0.5-2.7,0.8-4.3,0.8-5c0-3.5-1.8-5.2-5.5-5.2c-1.8,0-3.9,0.6-6.1,1.8c-2.2,1.2-4.5,3.3-6.8,6.2
		c-2.3,2.9-4.4,6.6-6.2,11.2c0.2-2.3,0.5-4.3,0.8-5.9s0.8-3.5,1.3-5.6c0.8-3,1.3-4.9,1.3-5.8c0-0.7-0.2-1.3-0.7-1.5
		c-0.5-0.3-1.2-0.4-2.4-0.4c-2.1,0-3.7,0.4-4.8,1.1c-1.1,0.7-2,1.9-2.5,3.4c-1.9,5.7-2.9,11.8-3,18.1c-1.9,1.8-4,3.3-6.4,4.6
		c-3.2,1.7-6.1,2.5-8.6,2.5c-3.9,0-6.6-1.2-8-3.7c6.6-1.5,11.3-3.6,14.1-6.3c2.8-2.6,4.2-5.8,4.2-9.5c0-3.1-1-5.6-2.9-7.5
		c-2-1.8-4.6-2.8-7.8-2.8c-3.6,0-6.9,0.9-9.8,2.8s-5.1,4.4-6.8,7.6c-1.6,3.2-2.4,6.6-2.4,10.3v0.1c-1.6,2-3.1,3.5-4.4,4.6
		c-1.8,1.6-3.9,2.4-6.2,2.4c-2.9,0-5-1.3-6.4-3.9c-1.3-2.6-2-7.1-2-13.5c0-1.7,0-4.1,0.2-7.2h10c6.2,0,9.3-2.1,9.3-6.4
		c0-1.2-0.2-2-0.6-2.4s-1-0.6-1.9-0.6h-5.7H308h-6.9l0.1-1.4l0,0c0-0.1,0-0.1,0-0.2l0.1-1.5l0.1-0.3l0,0c0.4-2.9,0.9-6.9,1.5-9.3
		c0,0,0.3-4.9-3.3-5.9c-3.6-1-5.5,4.7-5.5,4.7c-0.2,0.6-0.3,0.9-0.3,0.9h0.1c-1.1,4.1-2,8.4-2.6,13h-4.7c-2.5,0-3.7,1.7-3.7,5.2
		c0,1.5,0.3,2.5,0.9,3.2s1.7,1,3.3,1h3.2c-0.2,2.8-0.2,5.5-0.2,8.2c0,3,0.2,5.8,0.5,8.3c-0.3,0.2-0.7,0.4-1,0.8
		c-2.6,2.9-4.6,5.1-6.1,6.4s-2.8,2-3.9,2c-0.7,0-1.2-0.2-1.6-0.7s-0.6-1.1-0.6-1.9c0-2.4,0.6-6.7,1.9-12.8c0.8-4.2,1.3-6.9,1.3-8
		c0-1.9-1.4-2.8-4.1-2.8c-1.3,0-2.5,0.1-3.7,0.3c-0.3-1.2-0.6-2-1-2.4c-0.4-0.5-1.2-0.7-2.5-0.7c-3.9,0-7.5,1.2-11,3.5l0,0
		c-0.6-0.4-1.4-0.6-2.5-0.6c-3.9,0-7.2-0.2-10.1-0.7c2.7-7.4,4.1-14.1,4.1-20.1c0-4.3-1.1-7.6-3.1-10.1c-2.1-2.5-4.9-3.7-8.5-3.7
		c-2.9,0-5.6,0.7-7.9,2.2c-2.4,1.4-4.3,3.6-5.6,6.5c-1.4,2.9-2.1,6.5-2.1,10.7s0.9,7.9,2.6,11.2c1.7,3.2,4.3,5.9,7.7,7.9
		c-2.7,5.8-5.8,10.6-9.1,14.4c-3.3,3.9-6.3,5.8-9,5.8c-2.3,0-4-0.9-5.3-2.8c-1.2-1.8-2-4.5-2.4-8s-0.6-8.2-0.6-14.2
		c0-8.7,0.8-17.4,2.4-26.1c0.1-0.5,0.2-1.1,0.2-2c0-1.4-0.4-2.5-1.2-3.2s-2.1-1.1-3.8-1.1c-2.1,0-3.7,0.5-4.9,1.4s-2,2.6-2.5,5.1
		c-1.9,10.7-4.2,19.9-7,27.6c-2.7,7.7-5.5,13.5-8.3,17.4s-5.1,5.9-7.1,5.9c-2.2,0-3.9-1.9-5.2-5.8s-1.9-9.4-1.9-16.6
		c0-7.7,0.8-17,2.5-27.9c0.1-1.1,0.2-1.8,0.2-2.2c0-1.9-0.5-3.1-1.4-3.8c-0.9-0.7-2.2-1-3.9-1c-2.2,0-3.9,0.5-4.9,1.6
		c-1,1-1.8,2.9-2.1,5.6c-1.5,9.4-2.2,18-2.2,25.8c0,10.8,1.4,19.3,4.1,25.7c2.7,6.4,6.8,9.6,12.2,9.6c4.8,0,9.3-2.3,13.5-6.8
		s8-11.4,11.4-20.7c0.3,8.4,1.7,15.1,4.2,20c2.5,5,6.2,7.5,11.1,7.5c5.4,0,10.8-2.6,16.3-7.9s10.2-11.9,14.1-19.8
		c2.7,0.5,5.6,0.8,8.8,0.9c-0.3,0.5-0.7,1-1,1.6c-2.1,3.8-3.1,7.9-3.1,12.1c0,3.9,1,7,3.1,9.4s4.8,3.6,8.3,3.6c4.4,0,8.1-2.2,11-6.7
		c0.8,2.1,1.9,3.7,3.5,4.9c1.5,1.2,3.2,1.8,5.1,1.8c2.4,0,4.9-0.9,7.5-2.8s5-4.1,7.3-6.8c2.7,6.6,7.4,9.9,14.2,9.9
		c3.6,0,6.8-1,9.6-3.1c1.8-1.3,3.5-3,5.1-4.8c0.7,1.1,1.5,2.2,2.5,3.1c3.3,3,7.8,4.6,13.7,4.6c4.3,0,8.4-1,12.1-3
		c1.6-0.9,3-1.8,4.3-2.7c0.2,1,0.4,1.9,0.7,2.5c0.9,2.1,2.4,3.2,4.5,3.2c1.7,0,3-0.4,3.8-1.3s1.5-2.6,2.1-5.1
		c0.8-3.3,1.9-6.3,3.3-9.3c1.3-2.9,2.7-5.3,4.1-7.1c1.4-1.8,2.5-2.7,3.3-2.7c0.6,0,0.9,0.4,0.9,1.3c0,0.4-0.1,1.1-0.2,2.2
		c-0.2,0.8-0.3,1.6-0.3,2.4c0,2.5,0.8,4.4,2.3,5.8s3.8,2.2,6.8,2.2c2.4,0,4.6-0.6,6.7-1.6c2.1-1.1,3.9-2.4,5.5-4
		c1.1-1.1,1.7-2.7,1.7-4.6C399.6,136.6,399.4,135.8,398.9,135.1z M236.4,120.3c-3.5-2.5-5.3-6.4-5.3-11.6c0-3.1,0.5-5.5,1.4-7.2
		c1-1.7,2.2-2.5,3.7-2.5c1.1,0,1.9,0.5,2.5,1.6c0.6,1,0.9,2.7,0.9,4.9C239.7,109.4,238.6,114.3,236.4,120.3z M267.4,143.7
		c-0.5,2.3-1.3,4.1-2.4,5.5s-2.3,2.1-3.5,2.1s-2.2-0.4-2.9-1.2c-0.7-0.8-1.1-2-1.1-3.7c0-3,0.6-5.8,1.8-8.5c1.2-2.7,2.8-4.8,4.7-6.4
		c2-1.6,4.2-2.5,6.5-2.5L267.4,143.7z M329.5,141.3c0-3.3,0.7-6,2.1-8.3s3.2-3.4,5.2-3.4c1,0,1.8,0.3,2.4,0.9s0.9,1.4,0.9,2.4
		c0,2-1,3.7-2.9,5.2s-4.5,2.6-7.8,3.4L329.5,141.3L329.5,141.3z"/>
	<path class="st0" d="M147.2,142.5c-0.2,0-0.5,0-0.7,0.1c-2.3,0.6-4.2,0.9-5.8,1c-0.3-2.7-1.2-4.9-2.8-6.7c-1.6-1.8-3.7-2.7-6.4-2.7
		c-2.1,0-4.1,0.6-5.9,1.7c-1.8,1.2-3.1,2.8-4.2,4.8c-0.8,1.6-1.2,3.3-1.4,5.2c-1.2,1.5-2.3,2.7-3.3,3.6c-1.2,1-2.5,1.6-4,1.6
		c-1.9,0-3.3-0.8-4.1-2.5c-0.9-1.7-1.3-4.6-1.3-8.7c0-1.1,0-2.7,0.1-4.7h6.5c4,0,6-1.4,6-4.1c0-0.8-0.1-1.3-0.4-1.6
		c-0.2-0.3-0.7-0.4-1.2-0.4h-3.7h-2.3h-4.5l0.1-0.9l0,0v-0.1l0.1-1l0.1-0.2l0,0c0.2-1.9,0.6-4.4,1-6c0,0,0.2-3.2-2.1-3.8
		c-2.4-0.6-3.6,3-3.6,3c-0.1,0.4-0.2,0.6-0.2,0.6l0,0c-0.7,2.6-1.3,5.4-1.7,8.4h-3c-1.6,0-2.4,1.1-2.4,3.3c0,1,0.2,1.7,0.6,2.1
		c0.4,0.4,1.1,0.7,2.1,0.7h2.1c-0.1,1.8-0.2,3.6-0.2,5.3c0,11.4,3.6,17.2,10.9,17.2c2.3,0,4.4-0.7,6.2-2c1.1-0.8,2.1-1.8,3.1-3
		c0.1,0.1,0.1,0.3,0.2,0.5c0.8,1.7,1.9,3,3.3,4c1.5,1,3.2,1.5,5.3,1.5c2.5,0,4.7-0.9,6.6-2.6c1.9-1.8,3.2-4.1,3.9-7
		c2.5-0.1,4.8-0.5,6.9-1.2c1-0.3,1.5-1.3,1.5-3c0-0.7-0.1-1.3-0.4-1.7C148,142.7,147.6,142.5,147.2,142.5z M133,151.8
		c-0.8,0.9-1.8,1.3-2.9,1.3c-1,0-1.9-0.5-2.6-1.5c-0.7-1-1.1-2.5-1.1-4.4c0-2.4,0.5-4.3,1.4-5.6c0.9-1.3,2.1-2,3.4-2h0.3
		c-0.1,0.6-0.2,1.1-0.2,1.7c0,1.3,0.3,2.6,0.9,3.7c0.6,1.2,1.4,2.1,2.5,2.9C134.4,149.6,133.9,150.9,133,151.8z"/>
</g>
<text transform="matrix(1 0 0 1 4.4185 210.0648)" class="st1 st2 st3">Le réseau social des passionnés de pêches.</text>
</svg>
