<?xml version="1.0" encoding="utf-8"?>
<!-- Generator: Adobe Illustrator 22.1.0, SVG Export Plug-In . SVG Version: 6.00 Build 0)  -->
<svg version="1.1" id="Calque_1" xmlns="http://www.w3.org/2000/svg" xmlns:xlink="http://www.w3.org/1999/xlink" x="0px" y="0px"
	 viewBox="0 0 42.2 42.3" style="enable-background:new 0 0 42.2 42.3;" xml:space="preserve">
<style type="text/css">
	.st0{fill:#3A3E45;}
</style>
<path class="st0" d="M26.1,21.2l7.5-7.5c0.9-0.9,0.9-2.4,0-3.3L32,8.6c-0.9-0.9-2.4-0.9-3.3,0l-7.5,7.5l-7.5-7.5
	c-0.9-0.9-2.4-0.9-3.3,0l-1.7,1.7c-0.9,0.9-0.9,2.4,0,3.3l7.5,7.5l-7.5,7.5c-0.9,0.9-0.9,2.4,0,3.3l1.7,1.7c0.9,0.9,2.4,0.9,3.3,0
	l7.5-7.5l7.5,7.5c0.9,0.9,2.4,0.9,3.3,0l1.7-1.7c0.9-0.9,0.9-2.4,0-3.3L26.1,21.2z"/>
</svg>
