<?xml version="1.0" encoding="utf-8"?>
<!-- Generator: Adobe Illustrator 22.1.0, SVG Export Plug-In . SVG Version: 6.00 Build 0)  -->
<svg version="1.1" id="Calque_1" xmlns="http://www.w3.org/2000/svg" xmlns:xlink="http://www.w3.org/1999/xlink" x="0px" y="0px"
	 viewBox="0 0 42.2 42.3" style="enable-background:new 0 0 42.2 42.3;" xml:space="preserve">
<style type="text/css">
	.st0{fill:#3A3E45;}
</style>
<path class="st0" d="M33,32.2H9.2c-1.5,0-2.7-1.2-2.7-2.8V12.9c0-1.5,1.2-2.8,2.7-2.8H33c1.5,0,2.8,1.2,2.8,2.8v16.5
	C35.8,30.9,34.5,32.2,33,32.2z M12.8,13.4c-1.8,0-3.2,1.4-3.2,3.2s1.4,3.2,3.2,3.2s3.2-1.4,3.2-3.2S14.6,13.4,12.8,13.4z M10.1,28.5
	h22v-6.4l-5-5c-0.3-0.3-0.7-0.3-1,0l-7.8,7.8l-3.2-3.2c-0.3-0.3-0.7-0.3-1,0l-4.1,4.1V28.5z"/>
</svg>
