<?xml version="1.0" encoding="utf-8"?>
<!-- Generator: Adobe Illustrator 22.1.0, SVG Export Plug-In . SVG Version: 6.00 Build 0)  -->
<svg version="1.1" id="Calque_1" xmlns="http://www.w3.org/2000/svg" xmlns:xlink="http://www.w3.org/1999/xlink" x="0px" y="0px"
	 viewBox="0 0 42.2 42.3" style="enable-background:new 0 0 42.2 42.3;" xml:space="preserve">
<style type="text/css">
	.st0{fill:#393E45;}
</style>
<path class="st0" d="M21,15.5l-10.6,8.7v9.4c0,0.5,0.4,0.9,0.9,0.9h6.5c0.5,0,0.9-0.4,0.9-0.9v-5.5c0-0.5,0.4-0.9,0.9-0.9h3.6
	c0.5,0,0.9,0.4,0.9,0.9v5.5c0,0.5,0.4,0.9,0.9,0.9l0,0h6.5c0.5,0,0.9-0.4,0.9-0.9v-9.4l-10.6-8.7C21.6,15.3,21.2,15.3,21,15.5z
	 M37.7,21.4l-4.8-4v-8c0-0.4-0.3-0.7-0.7-0.7H29c-0.4,0.1-0.7,0.4-0.7,0.8v4.2l-5.1-4.3c-1-0.8-2.5-0.8-3.5,0l-14.5,12
	c-0.3,0.3-0.4,0.7-0.1,1l0,0l1.5,1.8c0.3,0.3,0.7,0.4,1,0.1l0,0L21,13.2c0.3-0.2,0.6-0.2,0.9,0l13.5,11.1c0.3,0.3,0.7,0.2,1-0.1l0,0
	l1.4-1.8C38,22.2,37.9,21.7,37.7,21.4L37.7,21.4z"/>
</svg>
