<?xml version="1.0" encoding="utf-8"?>
<!-- Generator: Adobe Illustrator 22.1.0, SVG Export Plug-In . SVG Version: 6.00 Build 0)  -->
<svg version="1.1" id="Calque_1" xmlns="http://www.w3.org/2000/svg" xmlns:xlink="http://www.w3.org/1999/xlink" x="0px" y="0px"
	 viewBox="0 0 42.2 42.3" style="enable-background:new 0 0 42.2 42.3;" xml:space="preserve">
<style type="text/css">
	.st0{fill:#3A3E45;}
</style>
<g>
	<path class="st0" d="M25.7,11.3l0,3.4l6.8,0l0-3.4H25.7z M26.1,14.3v-2.6h6l0,2.6H26.1z"/>
	<path class="st0" d="M35.1,11.1C35,10.4,34.3,9,32.4,9h-7.1l0,0C24.4,9.1,23,9.6,23,11v1.6h-9.2v-2h1.6c0.2,0,0.4-0.2,0.4-0.4v-1
		c0-0.2-0.2-0.4-0.4-0.4h-4.9c-0.2,0-0.4,0.2-0.4,0.4v1c0,0.2,0.2,0.4,0.4,0.4h1.6v2H9.7c-0.9,0-2.6,0.5-2.6,2.6v15.7
		c0,1.2,0.5,1.8,1,2c0.5,0.3,1,0.4,1.4,0.4c0.1,0,0.2,0,0.2,0h22.8c0,0,0.1,0,0.2,0h0c0.4,0,1.2-0.1,1.8-0.7
		c0.4-0.4,0.7-1.1,0.7-1.8V13.4L35.1,11.1L35.1,11.1z M21.2,29.6c-3.5,0-6.4-2.9-6.4-6.4c0-3.6,2.8-6.4,6.4-6.4s6.4,2.9,6.4,6.4
		C27.6,26.7,24.8,29.6,21.2,29.6z M33.1,14.4c0,0.5-0.4,0.8-0.8,0.8h-6.4c-0.4,0-0.8-0.4-0.8-0.8v-2.9c0-0.5,0.4-0.8,0.8-0.8h6.4
		c0.4,0,0.8,0.4,0.8,0.8V14.4z"/>
	<path class="st0" d="M21.2,17.7c-3,0-5.4,2.4-5.4,5.4c0,3,2.4,5.4,5.4,5.4s5.4-2.4,5.4-5.4C26.6,20.2,24.2,17.7,21.2,17.7z
		 M21.2,28c-2.6,0-4.7-2.2-4.7-4.9c0-2.7,2.1-4.9,4.7-4.9c2.6,0,4.7,2.2,4.7,4.9C25.9,25.8,23.8,28,21.2,28z"/>
</g>
</svg>
