<?xml version="1.0" encoding="utf-8"?>
<!-- Generator: Adobe Illustrator 22.1.0, SVG Export Plug-In . SVG Version: 6.00 Build 0)  -->
<svg version="1.1" id="Calque_1" xmlns="http://www.w3.org/2000/svg" xmlns:xlink="http://www.w3.org/1999/xlink" x="0px" y="0px"
	 viewBox="0 0 42.2 42.3" style="enable-background:new 0 0 42.2 42.3;" xml:space="preserve">
<style type="text/css">
	.st0{fill:#3A3E45;}
</style>
<path class="st0" d="M14.8,21.2c3,0,5.5-2.4,5.5-5.5c0-3-2.4-5.5-5.5-5.5c-3,0-5.5,2.4-5.5,5.5C9.4,18.7,11.8,21.2,14.8,21.2z
	 M18.6,22.7h-0.4c-1,0.5-2.1,0.8-3.3,0.8c-1.2,0-2.3-0.3-3.3-0.8h-0.4c-3.1,0-5.6,2.5-5.6,5.6v1.4c0,1.3,1.1,2.3,2.3,2.3h14.1
	c1.3,0,2.3-1,2.3-2.3v-1.4C24.2,25.2,21.7,22.7,18.6,22.7z M28.9,21.2c2.6,0,4.7-2.1,4.7-4.7s-2.1-4.7-4.7-4.7s-4.7,2.1-4.7,4.7
	S26.3,21.2,28.9,21.2z M31.3,22.7h-0.2c-0.7,0.2-1.4,0.4-2.2,0.4c-0.8,0-1.5-0.2-2.2-0.4h-0.2c-1,0-1.9,0.3-2.7,0.8
	c1.2,1.3,1.9,3,1.9,4.9v1.9c0,0.1,0,0.2,0,0.3h8.6c1.3,0,2.3-1,2.3-2.3C36.7,25.2,34.3,22.7,31.3,22.7z"/>
</svg>
