<?xml version="1.0" encoding="utf-8"?>
<!-- Generator: Adobe Illustrator 22.1.0, SVG Export Plug-In . SVG Version: 6.00 Build 0)  -->
<svg version="1.1" id="Calque_1" xmlns="http://www.w3.org/2000/svg" xmlns:xlink="http://www.w3.org/1999/xlink" x="0px" y="0px"
	 viewBox="0 0 42.2 42.3" style="enable-background:new 0 0 42.2 42.3;" xml:space="preserve">
<style type="text/css">
	.st0{fill:#3A3E45;}
</style>
<path class="st0" d="M31.9,14.4H11.8c-0.5,0-0.8-0.4-0.8-0.8c0-0.5,0.4-0.8,0.8-0.8h20.3c0.5,0,0.8-0.4,0.8-0.8
	c0-1.4-1.1-2.5-2.5-2.5H11c-1.9,0-3.4,1.5-3.4,3.4v16.9c0,1.9,1.5,3.4,3.4,3.4h21c1.5,0,2.7-1.1,2.7-2.5V16.9
	C34.6,15.5,33.4,14.4,31.9,14.4z M29.5,25.4c-0.9,0-1.7-0.8-1.7-1.7c0-0.9,0.8-1.7,1.7-1.7c0.9,0,1.7,0.8,1.7,1.7
	C31.2,24.6,30.5,25.4,29.5,25.4z"/>
</svg>
