<?xml version="1.0" encoding="utf-8"?>
<!-- Generator: Adobe Illustrator 14.0.0, SVG Export Plug-In . SVG Version: 6.00 Build 43363)  -->
<!DOCTYPE svg PUBLIC "-//W3C//DTD SVG 1.1//EN" "http://www.w3.org/Graphics/SVG/1.1/DTD/svg11.dtd">
<svg version="1.1" id="Calque_1" xmlns="http://www.w3.org/2000/svg" xmlns:xlink="http://www.w3.org/1999/xlink" x="0px" y="0px"
	 width="81.844px" height="124.967px" viewBox="0 0 81.844 124.967" enable-background="new 0 0 81.844 124.967"
	 xml:space="preserve">
<path fill-rule="evenodd" clip-rule="evenodd" fill="#61AAB0" d="M58.304,50.824c-0.732,2.114-1.197,4.662-1.197,7.714
	c0,0.156,0,0.304,0.004,0.455c0.142,9.06,2.513,13.255,8.665,20.914c0,0-3.729,3.361-5.355,9.137
	c-0.203,0.649-0.32,1.213-0.401,1.703c-0.258,1.373-0.385,2.849-0.328,4.434c0,0,0.187,0.745,0.658,0.56
	c0.458-0.186,2.488-0.279,2.503-2.569c0.01-0.177,0.013-0.351,0.01-0.538c0-0.029,0-0.059,0-0.088
	c0.003-0.289,0.017-0.596,0.031-0.908c0.14-1.574,0.907-4.391,4.78-9.365c2.695,3.459,3.886,5.867,4.409,7.552
	c0.19,1.29,0.35,2.433,0.406,3.029c0,0.215,0.006,0.419,0.041,0.623l0.032-0.012c0.006,0.021,0.021,0.034,0.032,0.048
	c0.344,1.177,1.625,1.802,1.943,2.042c0.378,0.279,0.743-0.194,0.743-0.194c1.766-7.325-5.378-15.399-5.378-15.399l-0.328-0.053
	c6.152-7.659,8.525-11.854,8.652-20.914c0.008-0.151,0.008-0.299,0.008-0.455c0-3.952-0.78-7.058-1.908-9.482
	c-2.849-6.654-8.233-10.685-8.233-10.685h-0.765C62.041,41.755,59.508,46.95,58.304,50.824z M75.139,55.878
	c0.087,0.831,0.142,1.719,0.142,2.673c0,0.129,0,0.269,0,0.398c-0.12,8.053-2.01,11.588-7.607,18.607
	c-5.603-7.02-7.486-10.555-7.607-18.607c0-0.134,0-0.27,0-0.398c0-0.937,0.057-1.799,0.15-2.617l14.808-0.139
	C75.061,55.82,75.098,55.849,75.139,55.878z M70.865,47.45c0-0.789-0.387-1.483-0.979-1.91c1.376,0.781,2.307,2.261,2.307,3.956
	c0,2.507-2.037,4.543-4.55,4.543c-2.51,0-4.544-2.036-4.544-4.543c0-2.516,2.034-4.551,4.544-4.551c0.426,0,0.838,0.063,1.231,0.172
	c-0.128-0.021-0.252-0.039-0.385-0.039c-1.312,0-2.375,1.061-2.375,2.372c0,1.311,1.062,2.377,2.375,2.377
	C69.807,49.827,70.865,48.761,70.865,47.45z"/>
<path fill="#61AAB0" d="M13.535,50.732c0-0.716,0.043-1.544,0.13-2.483s0.195-1.895,0.326-2.866c0.13-0.972,0.276-1.908,0.439-2.81
	s0.32-1.672,0.473-2.312c0.119-0.5,0.35-0.918,0.691-1.255c0.343-0.336,0.807-0.505,1.393-0.505c0.587,0,0.994,0.18,1.222,0.538
	c0.229,0.358,0.343,0.836,0.343,1.433c0,0.163-0.017,0.383-0.05,0.66c-0.032,0.276-0.073,0.581-0.122,0.912
	s-0.101,0.673-0.154,1.025c-0.055,0.354-0.105,0.679-0.154,0.978c-0.05,0.299-0.09,0.56-0.123,0.782
	c-0.032,0.223-0.049,0.372-0.049,0.447h0.326c0.065-0.119,0.168-0.312,0.31-0.578c0.141-0.266,0.304-0.572,0.488-0.92
	s0.383-0.714,0.595-1.1c0.212-0.385,0.409-0.754,0.595-1.107c0.185-0.353,0.353-0.665,0.505-0.937
	c0.151-0.271,0.266-0.473,0.342-0.603c0.348-0.586,0.743-0.988,1.188-1.205s0.939-0.326,1.482-0.326s0.975,0.229,1.295,0.685
	s0.48,1.086,0.48,1.889c0,0.12-0.024,0.32-0.073,0.603c-0.049,0.283-0.111,0.619-0.188,1.011c-0.076,0.391-0.16,0.819-0.252,1.286
	c-0.093,0.467-0.177,0.944-0.253,1.434c-0.076,0.488-0.139,0.972-0.188,1.449s-0.073,0.918-0.073,1.319
	c0,0.673,0.084,1.227,0.253,1.661c0.168,0.435,0.432,0.651,0.79,0.651c0.162,0,0.35-0.049,0.562-0.146s0.439-0.226,0.684-0.383
	c0.245-0.157,0.494-0.339,0.75-0.546c0.255-0.206,0.507-0.417,0.757-0.635c0.575-0.51,1.178-1.086,1.808-1.727l0.277,3.648
	l-0.814,0.619c-0.445,0.337-0.898,0.673-1.36,1.01c-0.461,0.337-0.941,0.638-1.441,0.903c-0.499,0.267-1.021,0.483-1.563,0.651
	c-0.543,0.169-1.112,0.253-1.71,0.253c-0.597,0-1.1-0.432-1.506-1.295c-0.407-0.863-0.611-2.125-0.611-3.786
	c0-0.652,0.043-1.354,0.131-2.109c0.086-0.755,0.195-1.566,0.325-2.436h-0.261l-4.267,8.47c-0.218,0.445-0.462,0.749-0.733,0.912
	s-0.586,0.244-0.944,0.244c-0.445,0-0.804-0.095-1.075-0.285c-0.271-0.189-0.48-0.445-0.627-0.766s-0.244-0.684-0.293-1.091
	S13.535,51.167,13.535,50.732z"/>
<path fill="#61AAB0" d="M38.633,41.938c0.314,0.63,0.551,1.295,0.708,1.995c0.157,0.701,0.236,1.371,0.236,2.012
	s-0.07,1.287-0.212,1.938c-0.141,0.651-0.345,1.281-0.61,1.889c-0.267,0.608-0.592,1.179-0.978,1.711
	c-0.385,0.531-0.825,0.993-1.319,1.384s-1.034,0.7-1.62,0.929c-0.586,0.228-1.211,0.342-1.873,0.342
	c-0.955,0-1.772-0.209-2.451-0.627s-1.235-0.964-1.669-1.637c-0.435-0.673-0.752-1.434-0.953-2.28s-0.302-1.705-0.302-2.573
	c0-1.194,0.18-2.311,0.538-3.347c0.358-1.037,0.871-1.938,1.539-2.704s1.484-1.368,2.451-1.808c0.966-0.44,2.052-0.66,3.257-0.66
	c1.032,0,1.998,0.16,2.899,0.48s1.745,0.749,2.532,1.287c0.787,0.537,1.521,1.153,2.199,1.849c0.679,0.694,1.311,1.411,1.897,2.149
	l-0.31,2.297c-0.293-0.391-0.689-0.814-1.188-1.271c-0.5-0.456-1.029-0.901-1.589-1.336c-0.559-0.434-1.11-0.844-1.652-1.229
	c-0.543-0.385-1.01-0.708-1.401-0.969L38.633,41.938z M33.6,51.01c0.369,0,0.728-0.188,1.075-0.562
	c0.348-0.374,0.651-0.847,0.912-1.416c0.261-0.57,0.47-1.2,0.627-1.89s0.236-1.35,0.236-1.979c0-0.5-0.038-0.964-0.114-1.393
	c-0.076-0.43-0.189-0.801-0.342-1.116c-0.152-0.314-0.348-0.564-0.586-0.749c-0.239-0.185-0.527-0.277-0.863-0.277
	c-0.445,0-0.869,0.19-1.271,0.57c-0.402,0.38-0.755,0.866-1.059,1.458c-0.305,0.592-0.543,1.246-0.717,1.963
	c-0.174,0.716-0.261,1.406-0.261,2.068c0,0.456,0.044,0.885,0.131,1.286c0.086,0.402,0.222,0.752,0.407,1.051
	c0.185,0.299,0.429,0.537,0.732,0.717C32.812,50.92,33.177,51.01,33.6,51.01z"/>
<path fill="#61AAB0" d="M11.612,85.059c0.392-0.499,0.82-1.048,1.287-1.645c0.467-0.598,0.926-1.167,1.376-1.711
	c0.45-0.542,0.863-1.025,1.238-1.449c0.374-0.423,0.67-0.711,0.888-0.863c0.336-0.238,0.749-0.442,1.237-0.61
	s1.031-0.253,1.629-0.253c0.304,0,0.595,0.071,0.871,0.212c0.277,0.142,0.519,0.342,0.725,0.603s0.369,0.576,0.489,0.945
	c0.119,0.369,0.179,0.781,0.179,1.237c0,0.445-0.108,0.894-0.325,1.344c-0.218,0.45-0.489,0.904-0.814,1.36
	c-0.326,0.456-0.679,0.911-1.059,1.367c-0.381,0.456-0.733,0.915-1.059,1.377c-0.326,0.461-0.598,0.92-0.814,1.376
	c-0.218,0.456-0.326,0.912-0.326,1.368c0,0.391,0.095,0.671,0.285,0.839c0.189,0.168,0.485,0.252,0.888,0.252
	c0.217,0,0.453-0.073,0.708-0.22c0.256-0.146,0.519-0.339,0.79-0.578c0.271-0.238,0.546-0.505,0.822-0.798
	c0.277-0.293,0.543-0.592,0.799-0.896c0.255-0.304,0.496-0.595,0.725-0.872c0.228-0.276,0.434-0.513,0.619-0.708l0.977,3.99
	c-0.336,0.488-0.763,0.942-1.278,1.36s-1.075,0.781-1.678,1.091s-1.227,0.551-1.873,0.725c-0.646,0.174-1.268,0.261-1.864,0.261
	c-0.782,0-1.42-0.095-1.914-0.285c-0.494-0.189-0.882-0.442-1.164-0.757c-0.283-0.315-0.476-0.671-0.578-1.067
	c-0.104-0.396-0.155-0.806-0.155-1.229c0-0.25,0.03-0.557,0.09-0.92c0.06-0.364,0.174-0.773,0.342-1.229s0.404-0.959,0.709-1.507
	c0.304-0.548,0.7-1.138,1.188-1.768c0.195-0.195,0.375-0.371,0.537-0.529c0.163-0.157,0.305-0.298,0.424-0.423
	s0.212-0.242,0.277-0.351c0.064-0.108,0.098-0.223,0.098-0.342c0-0.229-0.041-0.413-0.122-0.554
	c-0.082-0.142-0.198-0.212-0.351-0.212c-0.185,0-0.424,0.12-0.717,0.358c-0.293,0.239-0.613,0.657-0.961,1.254l-4.788,8.404
	c-0.25,0.435-0.508,0.735-0.773,0.903c-0.267,0.169-0.573,0.253-0.921,0.253c-0.467,0-0.836-0.101-1.107-0.302
	c-0.271-0.2-0.478-0.472-0.618-0.813c-0.142-0.343-0.231-0.738-0.27-1.189c-0.038-0.45-0.057-0.931-0.057-1.441
	c0-0.619,0.021-1.438,0.065-2.459c0.043-1.021,0.108-2.142,0.195-3.363s0.203-2.5,0.35-3.836c0.146-1.335,0.323-2.633,0.529-3.893
	c0.076-0.445,0.174-0.985,0.294-1.62c0.119-0.636,0.269-1.316,0.447-2.044c0.18-0.728,0.392-1.485,0.636-2.272
	s0.526-1.553,0.847-2.296c0.32-0.744,0.682-1.452,1.083-2.126c0.401-0.673,0.853-1.262,1.352-1.767
	c0.5-0.505,1.048-0.904,1.646-1.197c0.597-0.293,1.248-0.44,1.954-0.44c0.554,0,1.01,0.09,1.368,0.27
	c0.358,0.179,0.644,0.429,0.855,0.749c0.211,0.32,0.36,0.703,0.447,1.148s0.131,0.928,0.131,1.449c0,0.923-0.117,1.916-0.351,2.98
	s-0.529,2.131-0.888,3.2s-0.749,2.109-1.173,3.119c-0.423,1.01-0.83,1.922-1.221,2.736c-0.392,0.814-0.736,1.501-1.035,2.061
	c-0.298,0.559-0.496,0.926-0.594,1.099l-1.938,2.899L11.612,85.059z M14.805,66.769c-0.348,0-0.646,0.108-0.896,0.325
	c-0.25,0.218-0.486,0.527-0.709,0.929c-0.223,0.402-0.445,0.891-0.667,1.466c-0.223,0.576-0.476,1.216-0.758,1.922
	c-0.174,0.619-0.334,1.26-0.48,1.922s-0.279,1.322-0.398,1.979c-0.12,0.657-0.226,1.307-0.318,1.946
	c-0.092,0.642-0.171,1.244-0.236,1.809c-0.162,1.335-0.293,2.649-0.391,3.941c0.239-0.717,0.499-1.496,0.782-2.338
	c0.282-0.841,0.562-1.672,0.839-2.491c0.276-0.82,0.537-1.597,0.781-2.329c0.244-0.733,0.448-1.354,0.611-1.865
	c0.075-0.238,0.185-0.537,0.325-0.896c0.142-0.358,0.293-0.744,0.456-1.156c0.163-0.413,0.326-0.842,0.488-1.287
	c0.163-0.445,0.312-0.874,0.448-1.286c0.136-0.413,0.247-0.799,0.334-1.156c0.087-0.358,0.13-0.662,0.13-0.912
	C15.146,66.942,15.033,66.769,14.805,66.769z"/>
<path fill="#61AAB0" d="M32.428,90.694c-0.391,0.358-0.877,0.74-1.458,1.147s-1.208,0.782-1.881,1.124
	c-0.674,0.342-1.36,0.627-2.061,0.855c-0.7,0.228-1.365,0.342-1.995,0.342c-0.564,0-1.04-0.079-1.425-0.236
	c-0.386-0.157-0.698-0.377-0.937-0.659c-0.239-0.282-0.41-0.627-0.513-1.034c-0.104-0.407-0.155-0.855-0.155-1.344
	c0-0.685,0.079-1.479,0.236-2.387c0.157-0.906,0.35-1.846,0.578-2.817c0.228-0.972,0.47-1.94,0.725-2.907
	c0.255-0.966,0.48-1.856,0.676-2.671c0.076-0.282,0.229-0.523,0.456-0.725c0.229-0.201,0.486-0.363,0.773-0.488
	c0.288-0.125,0.587-0.218,0.896-0.277s0.589-0.09,0.839-0.09c0.456,0,0.765,0.085,0.928,0.253s0.244,0.394,0.244,0.676
	c0,0.239-0.054,0.584-0.162,1.034c-0.109,0.45-0.245,0.961-0.407,1.531c-0.163,0.569-0.337,1.184-0.521,1.84
	c-0.185,0.657-0.358,1.314-0.521,1.971c-0.162,0.657-0.299,1.298-0.407,1.922c-0.108,0.625-0.162,1.187-0.162,1.686
	c0,0.489,0.054,0.877,0.162,1.165s0.331,0.432,0.668,0.432c0.391,0,0.825-0.136,1.303-0.407c0.479-0.271,0.961-0.6,1.45-0.985
	c0.488-0.386,0.966-0.784,1.433-1.197c0.467-0.412,0.88-0.766,1.238-1.059V90.694z M25.147,73.951c0-0.25,0.054-0.532,0.163-0.847
	c0.108-0.315,0.285-0.611,0.529-0.888c0.244-0.277,0.569-0.511,0.977-0.7c0.407-0.19,0.915-0.285,1.523-0.285
	c0.38,0,0.738,0.043,1.074,0.13c0.337,0.087,0.63,0.22,0.88,0.399c0.25,0.179,0.448,0.415,0.595,0.708s0.22,0.641,0.22,1.043
	c0,0.369-0.06,0.728-0.179,1.074c-0.12,0.348-0.31,0.657-0.57,0.929s-0.589,0.491-0.985,0.659c-0.396,0.169-0.871,0.253-1.426,0.253
	c-0.955,0-1.661-0.226-2.117-0.676S25.147,74.7,25.147,73.951z"/>
<path fill="#61AAB0" d="M34.903,94.163c-0.586,0-1.132-0.258-1.637-0.773s-0.945-1.208-1.319-2.077
	c-0.375-0.868-0.668-1.875-0.88-3.021s-0.317-2.349-0.317-3.607c0-0.967,0.07-2.018,0.212-3.152c0.141-1.134,0.348-2.305,0.619-3.51
	c0.271-1.205,0.594-2.415,0.969-3.632c0.375-1.216,0.798-2.383,1.271-3.502c0.472-1.118,0.985-2.163,1.539-3.135
	s1.135-1.818,1.742-2.541c0.608-0.722,1.243-1.289,1.906-1.702c0.662-0.412,1.335-0.618,2.02-0.618c0.467,0,0.852,0.105,1.156,0.317
	c0.304,0.212,0.543,0.491,0.717,0.839c0.173,0.348,0.296,0.741,0.366,1.181s0.105,0.888,0.105,1.344c0,1.021-0.116,2.061-0.35,3.119
	s-0.549,2.122-0.945,3.191c-0.396,1.07-0.854,2.143-1.376,3.217c-0.521,1.075-1.064,2.142-1.629,3.201
	c-0.564,1.059-1.132,2.101-1.701,3.127c-0.57,1.025-1.105,2.027-1.604,3.005c-0.055,0.108-0.111,0.25-0.171,0.423
	c-0.061,0.174-0.117,0.361-0.171,0.562c-0.055,0.201-0.109,0.415-0.163,0.643c-0.055,0.229-0.098,0.451-0.131,0.668v0.229
	c0,0.282,0.03,0.557,0.09,0.822c0.06,0.267,0.133,0.505,0.22,0.717s0.18,0.38,0.277,0.505s0.189,0.188,0.276,0.188
	c0.206,0,0.442-0.044,0.709-0.131c0.266-0.087,0.548-0.203,0.847-0.35s0.605-0.315,0.92-0.505c0.315-0.19,0.619-0.383,0.912-0.578
	c0.685-0.456,1.401-0.983,2.15-1.58l1.335,3.42c-0.966,0.695-1.922,1.314-2.866,1.856c-0.413,0.229-0.839,0.454-1.278,0.677
	s-0.883,0.421-1.327,0.594c-0.445,0.174-0.88,0.312-1.304,0.416C35.669,94.111,35.272,94.163,34.903,94.163z M34.92,81.134
	c0.488-0.869,1.007-1.846,1.555-2.932c0.549-1.086,1.067-2.204,1.556-3.355c0.488-1.15,0.912-2.299,1.271-3.444
	s0.586-2.213,0.684-3.2c0-0.315-0.008-0.584-0.024-0.807c-0.016-0.223-0.067-0.334-0.154-0.334c-0.315,0-0.654,0.204-1.018,0.611
	c-0.364,0.407-0.728,0.958-1.092,1.652c-0.363,0.695-0.711,1.504-1.042,2.427c-0.332,0.924-0.627,1.906-0.888,2.948
	s-0.467,2.115-0.619,3.217C34.995,79.02,34.92,80.091,34.92,81.134z"/>
<path fill="#61AAB0" d="M44.268,94.163c-0.586,0-1.132-0.258-1.637-0.773s-0.945-1.208-1.319-2.077
	c-0.375-0.868-0.668-1.875-0.88-3.021s-0.317-2.349-0.317-3.607c0-0.967,0.07-2.018,0.212-3.152c0.141-1.134,0.348-2.305,0.619-3.51
	c0.271-1.205,0.594-2.415,0.969-3.632c0.375-1.216,0.798-2.383,1.271-3.502c0.472-1.118,0.985-2.163,1.539-3.135
	s1.135-1.818,1.742-2.541c0.608-0.722,1.243-1.289,1.906-1.702c0.662-0.412,1.335-0.618,2.02-0.618c0.467,0,0.852,0.105,1.156,0.317
	c0.304,0.212,0.543,0.491,0.717,0.839c0.173,0.348,0.296,0.741,0.366,1.181s0.105,0.888,0.105,1.344c0,1.021-0.116,2.061-0.35,3.119
	s-0.549,2.122-0.945,3.191c-0.396,1.07-0.854,2.143-1.376,3.217c-0.521,1.075-1.064,2.142-1.629,3.201
	c-0.564,1.059-1.132,2.101-1.701,3.127c-0.57,1.025-1.105,2.027-1.604,3.005c-0.055,0.108-0.111,0.25-0.171,0.423
	c-0.061,0.174-0.117,0.361-0.171,0.562c-0.055,0.201-0.109,0.415-0.163,0.643c-0.055,0.229-0.098,0.451-0.131,0.668v0.229
	c0,0.282,0.03,0.557,0.09,0.822c0.06,0.267,0.133,0.505,0.22,0.717s0.18,0.38,0.277,0.505s0.189,0.188,0.276,0.188
	c0.206,0,0.442-0.044,0.709-0.131c0.266-0.087,0.548-0.203,0.847-0.35s0.605-0.315,0.92-0.505c0.315-0.19,0.619-0.383,0.912-0.578
	c0.685-0.456,1.401-0.983,2.15-1.58l1.335,3.42c-0.966,0.695-1.922,1.314-2.866,1.856c-0.413,0.229-0.839,0.454-1.278,0.677
	s-0.883,0.421-1.327,0.594c-0.445,0.174-0.88,0.312-1.304,0.416C45.033,94.111,44.637,94.163,44.268,94.163z M44.284,81.134
	c0.488-0.869,1.007-1.846,1.555-2.932c0.549-1.086,1.067-2.204,1.556-3.355c0.488-1.15,0.912-2.299,1.271-3.444
	s0.586-2.213,0.684-3.2c0-0.315-0.008-0.584-0.024-0.807c-0.016-0.223-0.067-0.334-0.154-0.334c-0.315,0-0.654,0.204-1.018,0.611
	c-0.364,0.407-0.728,0.958-1.092,1.652c-0.363,0.695-0.711,1.504-1.042,2.427c-0.332,0.924-0.627,1.906-0.888,2.948
	s-0.467,2.115-0.619,3.217C44.359,79.02,44.284,80.091,44.284,81.134z"/>
<path fill="#3D4046" d="M0.858,31.057c0-1.222,0.239-2.468,0.718-3.738s1.159-2.474,2.042-3.609c0.882-1.135,1.945-2.147,3.19-3.039
	c1.245-0.891,2.634-1.567,4.167-2.028c-0.79-0.624-1.528-1.28-2.216-1.968c-0.688-0.687-1.287-1.391-1.798-2.109
	s-0.912-1.442-1.205-2.171s-0.439-1.454-0.439-2.178c0-0.923,0.104-1.8,0.313-2.632C5.84,6.752,6.127,5.98,6.495,5.271
	s0.802-1.353,1.303-1.927C8.299,2.77,8.838,2.281,9.415,1.878c0.575-0.402,1.177-0.712,1.805-0.929
	c0.627-0.218,1.256-0.326,1.888-0.326c0.836,0,1.642,0.208,2.418,0.624c0.775,0.416,1.465,1.077,2.069,1.981
	c0.604,0.904,1.087,2.075,1.449,3.514s0.543,3.175,0.543,5.21c0,1.475-0.053,2.875-0.16,4.2c-0.106,1.325-0.263,2.594-0.467,3.806
	c0.566,0.344,1.141,0.678,1.722,1.004c0.58,0.325,1.168,0.651,1.763,0.977c0.12,0.072,0.271,0.158,0.452,0.258
	c0.182,0.1,0.357,0.206,0.53,0.319c0.171,0.113,0.317,0.226,0.438,0.339s0.182,0.215,0.182,0.306c0,0.09-0.04,0.179-0.119,0.265
	s-0.172,0.167-0.278,0.244c-0.107,0.076-0.214,0.143-0.32,0.196c-0.107,0.055-0.188,0.095-0.244,0.122
	c-0.158,0.082-0.362,0.122-0.613,0.122c-0.521-0.009-1.131-0.108-1.832-0.298c-0.702-0.19-1.466-0.457-2.293-0.801
	c-0.408,1.674-0.898,3.204-1.47,4.593s-1.196,2.634-1.874,3.738c-0.679,1.104-1.396,2.064-2.153,2.883s-1.523,1.499-2.299,2.042
	c-0.776,0.543-1.547,0.95-2.313,1.221c-0.767,0.271-1.503,0.407-2.209,0.407c-0.733,0-1.414-0.145-2.041-0.434
	c-0.627-0.29-1.173-0.722-1.638-1.296c-0.465-0.575-0.829-1.287-1.094-2.137C0.991,33.178,0.858,32.188,0.858,31.057z M4.425,31.925
	c0,0.923,0.184,1.621,0.551,2.097c0.367,0.475,0.852,0.712,1.456,0.712c0.613,0,1.308-0.263,2.083-0.787s1.554-1.336,2.334-2.436
	c0.78-1.099,1.526-2.494,2.237-4.186c0.71-1.691,1.312-3.704,1.805-6.038l-0.516-0.312c-0.948,0.181-1.852,0.495-2.711,0.942
	c-0.859,0.448-1.658,0.979-2.396,1.595s-1.405,1.291-2,2.028s-1.104,1.481-1.525,2.232c-0.423,0.75-0.748,1.485-0.976,2.204
	C4.54,30.697,4.425,31.346,4.425,31.925z M8.884,9.348c0,0.724,0.163,1.442,0.488,2.157s0.78,1.423,1.365,2.123
	c0.586,0.701,1.282,1.396,2.091,2.083c0.808,0.688,1.7,1.366,2.675,2.035c0.158-1.257,0.283-2.58,0.377-3.969
	c0.093-1.389,0.139-2.865,0.139-4.43c0-1.067-0.069-1.97-0.209-2.707c-0.139-0.737-0.327-1.337-0.564-1.798
	c-0.236-0.461-0.516-0.794-0.836-0.997c-0.32-0.204-0.657-0.306-1.01-0.306c-0.344,0-0.692,0.082-1.045,0.244
	c-0.354,0.163-0.697,0.387-1.031,0.672c-0.335,0.285-0.65,0.617-0.948,0.997c-0.297,0.38-0.555,0.785-0.773,1.215
	C9.384,7.098,9.209,7.541,9.08,7.997C8.95,8.454,8.884,8.904,8.884,9.348z"/>
<path fill="#3D4046" d="M22.262,10.175c0-0.162,0.007-0.373,0.021-0.631c0.014-0.258,0.029-0.543,0.048-0.854
	c0.019-0.312,0.042-0.643,0.07-0.99c0.027-0.349,0.056-0.69,0.083-1.024c0.065-0.787,0.14-1.633,0.224-2.537
	c0-0.271,0.069-0.514,0.209-0.727c0.139-0.212,0.32-0.394,0.543-0.542c0.224-0.149,0.474-0.265,0.753-0.347
	C24.492,2.441,24.771,2.4,25.049,2.4c0.232,0,0.455,0.029,0.669,0.088c0.214,0.06,0.404,0.147,0.571,0.265
	c0.167,0.118,0.3,0.271,0.397,0.462c0.098,0.189,0.146,0.411,0.146,0.665c0,0.108-0.009,0.219-0.027,0.332s-0.047,0.233-0.084,0.359
	c-0.13,0.435-0.271,0.911-0.425,1.432s-0.312,1.038-0.474,1.554c-0.163,0.516-0.32,1.006-0.474,1.472s-0.291,0.862-0.411,1.188
	c-0.158,0.435-0.384,0.758-0.676,0.97c-0.293,0.213-0.588,0.319-0.885,0.319c-0.298,0-0.558-0.11-0.78-0.333
	C22.374,10.951,22.262,10.618,22.262,10.175z"/>
<path fill="#3D4046" d="M45.31,24.259c-0.214,0.29-0.499,0.629-0.856,1.018c-0.358,0.389-0.76,0.76-1.206,1.112
	c-0.445,0.354-0.924,0.651-1.435,0.896c-0.512,0.244-1.022,0.366-1.533,0.366c-0.613,0-1.124-0.191-1.533-0.576
	c-0.408-0.385-0.762-0.943-1.059-1.676c-0.223,0.254-0.497,0.512-0.822,0.773c-0.325,0.263-0.681,0.5-1.066,0.712
	c-0.385,0.213-0.787,0.387-1.205,0.522s-0.836,0.204-1.254,0.204c-0.446,0-0.881-0.089-1.303-0.265
	c-0.423-0.177-0.797-0.43-1.122-0.76s-0.585-0.732-0.78-1.208c-0.195-0.475-0.293-1.011-0.293-1.607c0-0.679,0.098-1.375,0.293-2.09
	c0.195-0.714,0.464-1.413,0.809-2.096c0.343-0.684,0.75-1.328,1.219-1.934c0.469-0.606,0.982-1.136,1.54-1.588
	s1.145-0.812,1.763-1.078s1.247-0.4,1.888-0.4c0.214,0,0.381,0.04,0.502,0.122c0.121,0.081,0.221,0.174,0.3,0.278
	c0.079,0.104,0.155,0.205,0.229,0.305s0.168,0.172,0.279,0.218c0.111,0.045,0.225,0.074,0.341,0.088s0.235,0.021,0.355,0.021
	c0.103,0,0.207-0.002,0.313-0.007c0.107-0.005,0.212-0.007,0.313-0.007c0.14,0,0.27,0.014,0.391,0.04
	c0.12,0.027,0.228,0.087,0.32,0.177c0.093,0.091,0.165,0.217,0.216,0.38s0.077,0.385,0.077,0.665c0,0.435-0.047,0.916-0.14,1.445
	c-0.093,0.528-0.195,1.071-0.307,1.628s-0.214,1.112-0.307,1.669c-0.093,0.556-0.139,1.083-0.139,1.58
	c0,0.426,0.039,0.758,0.118,0.998c0.079,0.239,0.248,0.359,0.509,0.359c0.194,0,0.399-0.048,0.613-0.143
	c0.213-0.095,0.429-0.22,0.647-0.373c0.218-0.154,0.437-0.328,0.655-0.522c0.218-0.194,0.425-0.396,0.62-0.604
	c0.455-0.489,0.915-1.04,1.379-1.655L45.31,24.259z M33.41,23.187c0,0.227,0.017,0.446,0.049,0.658
	c0.032,0.213,0.091,0.403,0.175,0.57c0.083,0.167,0.194,0.303,0.334,0.407c0.14,0.104,0.315,0.155,0.529,0.155
	c0.344,0,0.655-0.145,0.934-0.434c0.279-0.29,0.521-0.638,0.725-1.045s0.369-0.828,0.495-1.262c0.125-0.435,0.206-0.796,0.244-1.086
	l0.85-3.988c-0.381,0-0.753,0.093-1.115,0.277c-0.362,0.186-0.703,0.437-1.023,0.754c-0.321,0.316-0.616,0.678-0.885,1.085
	c-0.27,0.407-0.502,0.834-0.697,1.282c-0.195,0.447-0.346,0.897-0.453,1.35C33.463,22.364,33.41,22.789,33.41,23.187z"/>
<path fill="#3D4046" d="M52.139,24.693c-0.334,0.298-0.75,0.617-1.247,0.956s-1.033,0.651-1.609,0.937s-1.163,0.522-1.763,0.712
	c-0.6,0.19-1.168,0.285-1.708,0.285c-0.483,0-0.89-0.065-1.22-0.196c-0.329-0.132-0.597-0.314-0.801-0.55s-0.351-0.522-0.439-0.861
	c-0.088-0.34-0.132-0.713-0.132-1.12c0-0.569,0.067-1.232,0.202-1.987s0.3-1.538,0.494-2.348c0.195-0.81,0.402-1.616,0.62-2.422
	c0.219-0.805,0.411-1.547,0.579-2.225c0.064-0.235,0.194-0.437,0.39-0.604c0.195-0.167,0.416-0.303,0.662-0.406
	c0.246-0.104,0.502-0.182,0.767-0.231c0.265-0.049,0.504-0.074,0.718-0.074c0.39,0,0.654,0.07,0.794,0.21
	c0.14,0.141,0.209,0.328,0.209,0.563c0,0.199-0.047,0.486-0.14,0.861c-0.093,0.376-0.209,0.801-0.348,1.275
	c-0.14,0.475-0.288,0.986-0.446,1.533c-0.158,0.548-0.307,1.095-0.446,1.642c-0.139,0.548-0.255,1.081-0.348,1.602
	c-0.094,0.521-0.14,0.988-0.14,1.404c0,0.407,0.046,0.73,0.14,0.97c0.093,0.24,0.283,0.359,0.571,0.359
	c0.334,0,0.705-0.112,1.114-0.339c0.409-0.226,0.822-0.5,1.24-0.821c0.418-0.32,0.827-0.653,1.227-0.997s0.752-0.638,1.059-0.882
	V24.693z M45.91,10.745c0-0.208,0.046-0.443,0.14-0.706c0.093-0.262,0.243-0.509,0.452-0.739s0.489-0.425,0.836-0.583
	c0.349-0.158,0.783-0.237,1.304-0.237c0.325,0,0.631,0.036,0.919,0.108S50.1,8.771,50.313,8.92s0.383,0.346,0.509,0.591
	c0.125,0.244,0.188,0.533,0.188,0.868c0,0.308-0.051,0.605-0.152,0.896c-0.103,0.289-0.266,0.547-0.488,0.773
	c-0.223,0.226-0.504,0.409-0.843,0.549c-0.34,0.141-0.746,0.211-1.22,0.211c-0.817,0-1.421-0.188-1.812-0.563
	C46.105,11.869,45.91,11.369,45.91,10.745z"/>
<path fill="#3D4046" d="M61.853,27.583c-0.502,0-0.969-0.215-1.401-0.645c-0.432-0.43-0.808-1.006-1.128-1.729
	c-0.321-0.724-0.571-1.562-0.753-2.518c-0.181-0.954-0.271-1.956-0.271-3.005c0-0.805,0.061-1.681,0.181-2.626
	c0.121-0.944,0.298-1.92,0.53-2.924c0.231-1.004,0.508-2.013,0.829-3.025c0.32-1.013,0.683-1.985,1.087-2.917
	c0.403-0.932,0.843-1.803,1.316-2.612s0.971-1.515,1.491-2.116s1.063-1.074,1.63-1.418c0.567-0.344,1.144-0.516,1.729-0.516
	c0.399,0,0.729,0.088,0.989,0.265s0.465,0.409,0.613,0.698c0.148,0.29,0.253,0.618,0.313,0.984s0.091,0.739,0.091,1.119
	c0,0.851-0.101,1.717-0.3,2.599c-0.2,0.882-0.47,1.769-0.809,2.659s-0.731,1.784-1.177,2.68c-0.446,0.896-0.911,1.784-1.394,2.666
	c-0.483,0.882-0.969,1.75-1.457,2.605c-0.487,0.854-0.945,1.688-1.372,2.503c-0.047,0.091-0.096,0.208-0.146,0.353
	s-0.1,0.301-0.146,0.469c-0.047,0.167-0.093,0.346-0.139,0.535c-0.047,0.19-0.084,0.376-0.112,0.557v0.189
	c0,0.235,0.025,0.464,0.077,0.686c0.051,0.222,0.113,0.421,0.188,0.597c0.074,0.177,0.153,0.317,0.237,0.421
	c0.084,0.104,0.162,0.156,0.237,0.156c0.176,0,0.378-0.036,0.605-0.108s0.47-0.17,0.725-0.292c0.256-0.122,0.519-0.262,0.788-0.421
	c0.269-0.158,0.529-0.318,0.78-0.481c0.585-0.38,1.198-0.818,1.839-1.316l1.143,2.85c-0.826,0.579-1.644,1.095-2.452,1.547
	c-0.354,0.19-0.718,0.378-1.094,0.563c-0.377,0.186-0.755,0.351-1.136,0.495s-0.753,0.26-1.115,0.346S62.168,27.583,61.853,27.583z
	 M61.866,16.729c0.418-0.724,0.861-1.538,1.331-2.442c0.469-0.904,0.912-1.836,1.33-2.795s0.78-1.915,1.087-2.87
	c0.307-0.954,0.502-1.843,0.586-2.666c0-0.262-0.007-0.485-0.021-0.671c-0.014-0.186-0.058-0.278-0.132-0.278
	c-0.27,0-0.561,0.169-0.871,0.509c-0.312,0.339-0.623,0.798-0.934,1.377c-0.312,0.579-0.608,1.253-0.892,2.021
	c-0.284,0.77-0.537,1.588-0.76,2.456s-0.399,1.762-0.529,2.68C61.931,14.967,61.866,15.86,61.866,16.729z"/>
<path fill="#3D4046" d="M81.333,24.259c-0.214,0.29-0.499,0.629-0.856,1.018c-0.358,0.389-0.76,0.76-1.206,1.112
	c-0.445,0.354-0.924,0.651-1.435,0.896c-0.512,0.244-1.022,0.366-1.533,0.366c-0.613,0-1.124-0.191-1.533-0.576
	c-0.408-0.385-0.762-0.943-1.059-1.676c-0.223,0.254-0.497,0.512-0.822,0.773c-0.325,0.263-0.681,0.5-1.066,0.712
	c-0.385,0.213-0.787,0.387-1.205,0.522s-0.836,0.204-1.254,0.204c-0.446,0-0.881-0.089-1.303-0.265
	c-0.423-0.177-0.797-0.43-1.122-0.76s-0.585-0.732-0.78-1.208c-0.195-0.475-0.293-1.011-0.293-1.607c0-0.679,0.098-1.375,0.293-2.09
	c0.195-0.714,0.464-1.413,0.809-2.096c0.343-0.684,0.75-1.328,1.219-1.934c0.469-0.606,0.982-1.136,1.54-1.588
	s1.145-0.812,1.763-1.078s1.247-0.4,1.888-0.4c0.214,0,0.381,0.04,0.502,0.122c0.121,0.081,0.221,0.174,0.3,0.278
	c0.079,0.104,0.155,0.205,0.229,0.305s0.168,0.172,0.279,0.218c0.111,0.045,0.225,0.074,0.341,0.088s0.235,0.021,0.355,0.021
	c0.103,0,0.207-0.002,0.313-0.007c0.107-0.005,0.212-0.007,0.313-0.007c0.14,0,0.27,0.014,0.391,0.04
	c0.12,0.027,0.228,0.087,0.32,0.177c0.093,0.091,0.165,0.217,0.216,0.38s0.077,0.385,0.077,0.665c0,0.435-0.047,0.916-0.14,1.445
	c-0.093,0.528-0.195,1.071-0.307,1.628s-0.214,1.112-0.307,1.669c-0.093,0.556-0.139,1.083-0.139,1.58
	c0,0.426,0.039,0.758,0.118,0.998c0.079,0.239,0.248,0.359,0.509,0.359c0.194,0,0.399-0.048,0.613-0.143
	c0.213-0.095,0.429-0.22,0.647-0.373c0.218-0.154,0.437-0.328,0.655-0.522c0.218-0.194,0.425-0.396,0.62-0.604
	c0.455-0.489,0.915-1.04,1.379-1.655L81.333,24.259z M69.433,23.187c0,0.227,0.017,0.446,0.049,0.658
	c0.032,0.213,0.091,0.403,0.175,0.57c0.083,0.167,0.194,0.303,0.334,0.407c0.14,0.104,0.315,0.155,0.529,0.155
	c0.344,0,0.655-0.145,0.934-0.434c0.279-0.29,0.521-0.638,0.725-1.045s0.369-0.828,0.495-1.262c0.125-0.435,0.206-0.796,0.244-1.086
	l0.85-3.988c-0.381,0-0.753,0.093-1.115,0.277c-0.362,0.186-0.703,0.437-1.023,0.754c-0.321,0.316-0.616,0.678-0.885,1.085
	c-0.27,0.407-0.502,0.834-0.697,1.282c-0.195,0.447-0.346,0.897-0.453,1.35C69.486,22.364,69.433,22.789,69.433,23.187z"/>
<g>
	<path fill="#3D4046" d="M13.602,122.097c-0.18,0.249-0.419,0.541-0.718,0.875c-0.3,0.335-0.636,0.653-1.009,0.957
		c-0.374,0.303-0.774,0.56-1.202,0.77s-0.855,0.315-1.283,0.315c-0.514,0-0.941-0.165-1.283-0.496
		c-0.343-0.33-0.638-0.811-0.887-1.44c-0.187,0.218-0.416,0.439-0.688,0.665s-0.57,0.43-0.893,0.612
		c-0.323,0.183-0.659,0.332-1.009,0.449c-0.351,0.116-0.7,0.175-1.051,0.175c-0.373,0-0.736-0.076-1.091-0.228
		c-0.354-0.151-0.667-0.369-0.938-0.653c-0.272-0.284-0.49-0.63-0.654-1.038c-0.163-0.409-0.244-0.869-0.244-1.383
		c0-0.583,0.081-1.183,0.244-1.797c0.164-0.614,0.39-1.215,0.677-1.803c0.288-0.587,0.628-1.141,1.021-1.662
		c0.393-0.521,0.822-0.977,1.289-1.365s0.958-0.698,1.476-0.928s1.044-0.344,1.581-0.344c0.179,0,0.318,0.035,0.42,0.104
		c0.102,0.07,0.185,0.15,0.251,0.239c0.066,0.09,0.13,0.178,0.192,0.263c0.062,0.086,0.14,0.147,0.233,0.187
		s0.188,0.064,0.286,0.076c0.097,0.012,0.196,0.018,0.297,0.018c0.086,0,0.174-0.002,0.263-0.006
		c0.09-0.004,0.177-0.006,0.263-0.006c0.116,0,0.226,0.012,0.326,0.035c0.102,0.023,0.191,0.073,0.269,0.151
		c0.078,0.078,0.139,0.187,0.181,0.327c0.043,0.14,0.064,0.33,0.064,0.571c0,0.373-0.039,0.787-0.116,1.242
		c-0.078,0.455-0.164,0.922-0.257,1.4c-0.094,0.479-0.179,0.957-0.257,1.435c-0.078,0.479-0.116,0.932-0.116,1.359
		c0,0.366,0.032,0.651,0.099,0.857s0.208,0.31,0.426,0.31c0.163,0,0.335-0.041,0.514-0.123c0.179-0.081,0.359-0.188,0.542-0.32
		s0.366-0.282,0.549-0.449s0.355-0.34,0.52-0.52c0.381-0.42,0.766-0.895,1.154-1.423L13.602,122.097z M3.638,121.175
		c0,0.194,0.014,0.384,0.041,0.566s0.075,0.346,0.146,0.489c0.07,0.145,0.163,0.261,0.28,0.351c0.116,0.089,0.265,0.134,0.443,0.134
		c0.287,0,0.548-0.124,0.781-0.373s0.436-0.549,0.607-0.898c0.171-0.35,0.309-0.712,0.414-1.085
		c0.104-0.373,0.173-0.685,0.204-0.934l0.712-3.43c-0.319,0-0.631,0.08-0.934,0.239c-0.304,0.159-0.59,0.375-0.857,0.647
		c-0.269,0.272-0.516,0.583-0.741,0.933c-0.226,0.351-0.42,0.718-0.583,1.103c-0.164,0.386-0.29,0.772-0.38,1.161
		C3.683,120.468,3.638,120.833,3.638,121.175z"/>
	<path fill="#3D4046" d="M38.009,122.47c-0.28,0.257-0.628,0.531-1.044,0.823c-0.416,0.291-0.865,0.56-1.348,0.805
		s-0.975,0.449-1.476,0.612c-0.502,0.163-0.979,0.245-1.43,0.245c-0.404,0-0.745-0.057-1.021-0.169
		c-0.276-0.113-0.5-0.271-0.671-0.473c-0.172-0.202-0.294-0.449-0.368-0.741c-0.073-0.291-0.11-0.612-0.11-0.962
		c0-0.49,0.057-1.06,0.169-1.71c0.113-0.648,0.251-1.321,0.414-2.018c0.164-0.696,0.337-1.391,0.52-2.083s0.344-1.33,0.484-1.913
		c0.054-0.202,0.163-0.375,0.326-0.52c0.163-0.144,0.349-0.261,0.555-0.35c0.206-0.09,0.42-0.155,0.642-0.198
		s0.422-0.064,0.601-0.064c0.327,0,0.549,0.061,0.665,0.181c0.116,0.121,0.175,0.282,0.175,0.484c0,0.171-0.039,0.418-0.116,0.741
		c-0.078,0.322-0.175,0.688-0.292,1.097c-0.116,0.408-0.241,0.848-0.373,1.318c-0.133,0.471-0.257,0.94-0.374,1.411
		c-0.116,0.471-0.214,0.93-0.291,1.377c-0.078,0.447-0.117,0.85-0.117,1.207c0,0.351,0.039,0.629,0.117,0.835
		c0.077,0.206,0.237,0.309,0.479,0.309c0.279,0,0.591-0.097,0.933-0.291c0.343-0.194,0.688-0.43,1.039-0.706
		c0.35-0.276,0.691-0.562,1.026-0.857c0.334-0.296,0.63-0.549,0.887-0.759V122.47z M32.794,110.477c0-0.179,0.038-0.381,0.116-0.606
		s0.204-0.438,0.379-0.637c0.176-0.198,0.409-0.365,0.7-0.501c0.292-0.136,0.655-0.204,1.091-0.204c0.272,0,0.529,0.031,0.771,0.093
		c0.241,0.062,0.451,0.158,0.63,0.286s0.32,0.298,0.426,0.508c0.104,0.21,0.157,0.459,0.157,0.746c0,0.265-0.043,0.521-0.128,0.771
		c-0.086,0.249-0.222,0.471-0.408,0.665s-0.422,0.352-0.706,0.473c-0.284,0.12-0.624,0.181-1.021,0.181
		c-0.685,0-1.19-0.161-1.518-0.484C32.957,111.443,32.794,111.013,32.794,110.477z"/>
	<path fill="#3D4046" d="M55.253,114.513c0,0.211-0.023,0.496-0.07,0.858c-0.047,0.361-0.107,0.758-0.181,1.189
		c-0.074,0.432-0.154,0.877-0.239,1.336c-0.086,0.459-0.166,0.887-0.239,1.283c-0.074,0.396-0.135,0.745-0.181,1.045
		c-0.047,0.299-0.07,0.507-0.07,0.624c0,0.218,0.004,0.418,0.012,0.601s0.031,0.343,0.07,0.479c0.038,0.136,0.099,0.241,0.181,0.314
		c0.081,0.074,0.2,0.111,0.355,0.111c0.171,0,0.379-0.043,0.624-0.129c0.245-0.085,0.506-0.2,0.782-0.344
		c0.275-0.144,0.558-0.308,0.846-0.49s0.562-0.375,0.822-0.577s0.498-0.402,0.712-0.601c0.214-0.199,0.387-0.384,0.52-0.555
		c0,0.257,0.001,0.49,0.006,0.7c0.003,0.21,0.006,0.41,0.006,0.601s0.001,0.387,0.006,0.589c0.003,0.203,0.005,0.429,0.005,0.677
		c-0.171,0.172-0.383,0.354-0.636,0.549s-0.532,0.389-0.84,0.583s-0.634,0.382-0.979,0.561c-0.347,0.179-0.694,0.336-1.045,0.473
		c-0.35,0.136-0.695,0.244-1.038,0.326c-0.342,0.082-0.661,0.123-0.957,0.123c-0.295,0-0.548-0.059-0.758-0.176
		c-0.21-0.116-0.391-0.279-0.543-0.489c-0.151-0.21-0.279-0.461-0.385-0.753c-0.104-0.292-0.196-0.616-0.274-0.975
		c-0.279,0.366-0.575,0.702-0.887,1.01c-0.311,0.308-0.628,0.573-0.95,0.799c-0.323,0.226-0.649,0.402-0.98,0.531
		c-0.33,0.128-0.651,0.192-0.962,0.192c-0.257,0-0.498-0.043-0.724-0.129c-0.226-0.085-0.426-0.229-0.601-0.432
		c-0.176-0.202-0.313-0.468-0.415-0.799c-0.101-0.33-0.151-0.741-0.151-1.23c0-0.6,0.072-1.361,0.216-2.287s0.321-1.983,0.531-3.174
		c0.016-0.116,0.045-0.273,0.087-0.472c0.043-0.198,0.102-0.414,0.176-0.647c0.073-0.233,0.165-0.471,0.273-0.712
		c0.109-0.241,0.237-0.459,0.386-0.653c0.147-0.194,0.32-0.354,0.519-0.479s0.422-0.19,0.671-0.198
		c0.412,0.016,0.708,0.068,0.887,0.157c0.179,0.09,0.269,0.2,0.269,0.333c-0.07,0.412-0.146,0.871-0.228,1.376
		c-0.082,0.506-0.165,1.016-0.251,1.528c-0.086,0.514-0.167,1.014-0.245,1.5c-0.077,0.485-0.147,0.92-0.21,1.301
		s-0.11,0.688-0.146,0.922c-0.035,0.232-0.053,0.354-0.053,0.361c0,0.14,0.014,0.274,0.041,0.402s0.068,0.243,0.122,0.344
		c0.055,0.102,0.125,0.184,0.21,0.245c0.086,0.062,0.188,0.094,0.304,0.094c0.171,0,0.346-0.045,0.525-0.134
		c0.179-0.09,0.348-0.218,0.507-0.386c0.159-0.167,0.302-0.373,0.426-0.618c0.125-0.245,0.218-0.522,0.28-0.834l1.155-5.927
		c0.039-0.187,0.196-0.345,0.473-0.473c0.275-0.128,0.589-0.192,0.938-0.192c0.397,0,0.712,0.07,0.945,0.21
		S55.253,114.296,55.253,114.513z"/>
	<path fill="#3D4046" d="M70.909,122.668c-0.552,0.429-1.097,0.81-1.633,1.144c-0.226,0.141-0.463,0.278-0.712,0.414
		c-0.249,0.137-0.494,0.257-0.735,0.362c-0.241,0.104-0.477,0.19-0.705,0.257c-0.229,0.065-0.442,0.099-0.637,0.099
		c-0.108,0-0.27-0.023-0.483-0.07c-0.214-0.046-0.447-0.142-0.7-0.285c-0.253-0.145-0.506-0.353-0.759-0.624
		c-0.253-0.272-0.473-0.635-0.659-1.086c-0.287,0.28-0.593,0.547-0.916,0.8c-0.322,0.253-0.657,0.473-1.003,0.659
		s-0.696,0.336-1.05,0.449c-0.354,0.112-0.71,0.169-1.067,0.169c-0.506,0-0.943-0.108-1.312-0.327
		c-0.37-0.217-0.677-0.507-0.922-0.869c-0.245-0.361-0.428-0.771-0.549-1.23c-0.12-0.459-0.181-0.934-0.181-1.423
		c0-0.498,0.064-1.002,0.192-1.512c0.129-0.509,0.315-1.003,0.561-1.481s0.542-0.93,0.893-1.354c0.35-0.424,0.746-0.801,1.189-1.132
		c0.443-0.33,0.926-0.604,1.447-0.822c0.521-0.218,1.077-0.354,1.668-0.408c0.023-0.995,0.112-1.979,0.269-2.952
		c0.155-0.972,0.361-1.897,0.618-2.776s0.558-1.691,0.904-2.438c0.346-0.746,0.726-1.392,1.138-1.937
		c0.412-0.544,0.852-0.971,1.318-1.277c0.467-0.308,0.948-0.461,1.446-0.461c0.365,0,0.677,0.095,0.934,0.286
		c0.257,0.19,0.465,0.443,0.624,0.758c0.159,0.315,0.274,0.681,0.345,1.097c0.069,0.416,0.104,0.846,0.104,1.289
		c0,0.272-0.012,0.553-0.035,0.84c-0.101,1.097-0.288,2.134-0.56,3.109c-0.272,0.977-0.592,1.928-0.957,2.853
		c-0.365,0.926-0.763,1.844-1.189,2.754c-0.429,0.91-0.845,1.854-1.249,2.835c-0.039,0.109-0.077,0.241-0.116,0.396
		c-0.039,0.156-0.076,0.325-0.111,0.508s-0.063,0.369-0.087,0.56c-0.023,0.191-0.035,0.376-0.035,0.555
		c0,0.226,0.014,0.439,0.041,0.642c0.026,0.202,0.071,0.383,0.134,0.542c0.062,0.16,0.146,0.286,0.251,0.38
		c0.104,0.093,0.235,0.14,0.391,0.14c0.147,0,0.31-0.029,0.484-0.088c0.175-0.058,0.359-0.138,0.554-0.239
		c0.194-0.101,0.392-0.216,0.59-0.344s0.391-0.259,0.577-0.391c0.428-0.312,0.875-0.665,1.342-1.062L70.909,122.668z
		 M62.883,116.135c-0.514,0.249-0.971,0.577-1.371,0.986c-0.4,0.408-0.735,0.85-1.003,1.324c-0.269,0.475-0.473,0.952-0.613,1.435
		c-0.14,0.482-0.21,0.918-0.21,1.307c0,0.156,0.018,0.312,0.053,0.467s0.1,0.296,0.192,0.42c0.094,0.125,0.226,0.226,0.396,0.304
		c0.172,0.077,0.394,0.116,0.665,0.116c0.141,0,0.278-0.035,0.415-0.104c0.136-0.07,0.266-0.162,0.391-0.274
		c0.124-0.112,0.243-0.241,0.355-0.385c0.113-0.145,0.216-0.294,0.31-0.449c0.218-0.358,0.416-0.763,0.595-1.214
		c-0.023-0.108-0.043-0.281-0.059-0.519s-0.027-0.502-0.035-0.794c-0.008-0.291-0.016-0.593-0.022-0.904
		c-0.008-0.311-0.014-0.595-0.018-0.852s-0.01-0.467-0.018-0.63S62.891,116.127,62.883,116.135z M68.366,107.677
		c0.047-0.545,0.07-0.977,0.07-1.296c0-0.42-0.037-0.711-0.111-0.875c-0.074-0.163-0.181-0.244-0.32-0.244
		c-0.249,0-0.475,0.157-0.677,0.472c-0.203,0.315-0.382,0.718-0.537,1.208s-0.292,1.03-0.408,1.622
		c-0.117,0.591-0.214,1.162-0.292,1.715c-0.077,0.552-0.14,1.05-0.187,1.493s-0.078,0.758-0.093,0.945
		c-0.031,0.381-0.057,0.748-0.076,1.103c-0.02,0.354-0.033,0.677-0.041,0.968c-0.008,0.292-0.012,0.547-0.012,0.765s0,0.385,0,0.501
		v0.117c0.443-1.011,0.852-2.019,1.226-3.021c0.155-0.428,0.312-0.877,0.472-1.348c0.16-0.471,0.306-0.943,0.438-1.418
		c0.133-0.474,0.247-0.94,0.345-1.399C68.259,108.524,68.327,108.089,68.366,107.677z"/>
	<path fill="#3D4046" d="M74.199,124.955c-0.73,0-1.37-0.132-1.919-0.396s-1.005-0.62-1.371-1.067
		c-0.365-0.447-0.64-0.965-0.822-1.552c-0.183-0.588-0.274-1.204-0.274-1.85c0-0.436,0.043-0.896,0.129-1.383
		c0.085-0.485,0.216-0.962,0.391-1.429s0.395-0.912,0.659-1.336s0.573-0.797,0.928-1.12c0.354-0.322,0.75-0.579,1.189-0.77
		s0.928-0.286,1.465-0.286c0.436,0,0.84,0.07,1.213,0.21s0.698,0.337,0.975,0.589c0.275,0.253,0.491,0.559,0.647,0.916
		c0.155,0.358,0.233,0.759,0.233,1.202c0,0.482-0.119,0.964-0.356,1.446s-0.565,0.938-0.985,1.365s-0.92,0.809-1.499,1.144
		c-0.58,0.334-1.208,0.595-1.885,0.781c0.117,0.21,0.231,0.385,0.345,0.525c0.112,0.14,0.228,0.249,0.344,0.326
		c0.116,0.078,0.239,0.133,0.367,0.163c0.129,0.031,0.267,0.047,0.414,0.047c0.467,0,0.959-0.093,1.477-0.279
		c0.517-0.188,1.021-0.421,1.511-0.7c0.49-0.28,0.952-0.586,1.389-0.916c0.435-0.331,0.805-0.644,1.107-0.939l1.506,1.563
		c-0.685,0.708-1.412,1.334-2.182,1.878c-0.335,0.233-0.694,0.463-1.08,0.688c-0.385,0.226-0.789,0.426-1.213,0.602
		c-0.424,0.175-0.863,0.314-1.318,0.42C75.127,124.902,74.666,124.955,74.199,124.955z M72.647,119.472
		c0.28,0,0.586-0.072,0.916-0.216c0.331-0.144,0.638-0.328,0.922-0.555c0.284-0.225,0.523-0.47,0.718-0.734s0.291-0.521,0.291-0.771
		c0-0.35-0.063-0.638-0.192-0.863c-0.128-0.226-0.285-0.338-0.473-0.338c-0.334,0-0.62,0.062-0.857,0.187s-0.436,0.286-0.595,0.484
		s-0.288,0.424-0.385,0.677c-0.098,0.253-0.172,0.507-0.222,0.764c-0.051,0.257-0.084,0.506-0.1,0.747
		S72.647,119.301,72.647,119.472z"/>
	<polygon fill="#FFFFFF" points="16.705,114.502 15.461,114.412 15.372,116.432 16.531,116.402 	"/>
	<path fill="#3D4046" d="M20.246,120.808c-0.315,0.222-0.635,0.426-0.957,0.612c-0.323,0.187-0.63,0.349-0.922,0.484
		c-0.291,0.136-0.56,0.243-0.805,0.32c-0.245,0.078-0.449,0.117-0.612,0.117c-0.265,0-0.504-0.041-0.718-0.123
		c-0.214-0.081-0.395-0.214-0.543-0.396c-0.147-0.183-0.26-0.418-0.338-0.706c-0.02-0.072-0.029-0.161-0.044-0.242l-0.024,0.043
		c0,0-0.564-2.97-0.208-6.594c0,0,1.765,0.222,2.745,0.162l-0.001,0.017h3.365c0.188,0,0.358-0.086,0.514-0.257
		s0.233-0.393,0.233-0.665c0-0.226-0.035-0.412-0.104-0.561c-0.07-0.147-0.184-0.226-0.339-0.233
		c-0.132-0.008-0.3-0.016-0.502-0.023c-0.202-0.007-0.42-0.015-0.653-0.022s-0.475-0.018-0.723-0.029
		c-0.249-0.012-0.48-0.021-0.694-0.029s-0.402-0.014-0.566-0.018c-0.163-0.004-0.279-0.01-0.35-0.018
		c-0.669-0.043-1.913-0.21-1.913-0.21c-0.125-0.016-0.245-0.029-0.362-0.041c-0.116-0.012-0.233-0.025-0.35-0.041
		c0.14-0.63,0.293-1.279,0.461-1.948c0.167-0.669,0.346-1.281,0.536-1.837c0.091-0.266,0.184-0.505,0.278-0.726
		c0.354-0.947,0.206-1.629-0.417-1.896c-0.624-0.268-1.203,0.639-1.203,0.639c-0.4,0.766-0.762,1.641-1.085,2.625
		c-0.322,0.983-0.589,2-0.799,3.051c-0.078,0.016-0.22,0.021-0.426,0.018s-0.439-0.01-0.7-0.018s-0.533-0.01-0.816-0.006
		c-0.284,0.004-0.545,0.025-0.782,0.063c-0.236,0.039-0.432,0.1-0.583,0.182c-0.151,0.081-0.228,0.2-0.228,0.355
		c0,0.07,0.004,0.153,0.012,0.251s0.035,0.19,0.082,0.28c0.046,0.089,0.12,0.167,0.222,0.233c0.101,0.065,0.245,0.11,0.432,0.134
		c0.42,0.047,0.74,0.086,0.962,0.116c0.222,0.031,0.404,0.061,0.549,0.088c0.144,0.027,0.28,0.055,0.408,0.082
		s0.31,0.056,0.543,0.087c-0.07,0.521-0.125,1.047-0.164,1.575c-0.039,0.529-0.058,1.026-0.058,1.493
		c0,1.198,0.075,2.275,0.227,3.232c0.152,0.956,0.38,1.771,0.683,2.443c0.304,0.673,0.681,1.188,1.132,1.546
		c0.451,0.358,0.973,0.537,1.563,0.537c0.288,0,0.608-0.055,0.963-0.163c0.354-0.109,0.758-0.272,1.213-0.49s0.975-0.49,1.558-0.816
		c0.583-0.327,1.248-0.708,1.995-1.144v-2.987c-0.233,0.257-0.494,0.508-0.781,0.753C20.862,120.353,20.561,120.586,20.246,120.808z
		"/>
	<path fill="#3D4046" d="M29.496,120.819c-0.315,0.222-0.635,0.426-0.957,0.612c-0.323,0.187-0.63,0.349-0.922,0.484
		c-0.291,0.136-0.56,0.243-0.805,0.32c-0.245,0.078-0.449,0.117-0.612,0.117c-0.265,0-0.504-0.041-0.718-0.123
		c-0.214-0.081-0.395-0.214-0.543-0.396c-0.147-0.183-0.26-0.418-0.338-0.706c-0.02-0.072-0.029-0.161-0.044-0.242l-0.024,0.043
		c0,0-0.564-2.97-0.208-6.594c0,0,1.765,0.222,2.745,0.162l-0.001,0.017h3.365c0.188,0,0.358-0.086,0.514-0.257
		s0.233-0.393,0.233-0.665c0-0.226-0.035-0.412-0.104-0.561c-0.07-0.147-0.184-0.226-0.339-0.233
		c-0.132-0.008-0.3-0.016-0.502-0.023c-0.202-0.007-0.42-0.015-0.653-0.022s-0.475-0.018-0.723-0.029
		c-0.249-0.012-0.48-0.021-0.694-0.029s-0.402-0.014-0.566-0.018c-0.163-0.004-0.279-0.01-0.35-0.018
		c-0.669-0.043-1.913-0.21-1.913-0.21c-0.125-0.016-0.245-0.029-0.362-0.041c-0.116-0.012-0.233-0.025-0.35-0.041
		c0.14-0.63,0.293-1.279,0.461-1.948c0.167-0.669,0.346-1.281,0.536-1.837c0.091-0.266,0.184-0.505,0.278-0.726
		c0.354-0.947,0.206-1.629-0.417-1.896c-0.624-0.268-1.203,0.639-1.203,0.639c-0.4,0.766-0.762,1.641-1.085,2.625
		c-0.322,0.983-0.589,2-0.799,3.051c-0.078,0.016-0.22,0.021-0.426,0.018s-0.439-0.01-0.7-0.018s-0.533-0.01-0.816-0.006
		c-0.284,0.004-0.545,0.025-0.782,0.063c-0.236,0.039-0.432,0.1-0.583,0.182c-0.151,0.081-0.228,0.2-0.228,0.355
		c0,0.07,0.004,0.153,0.012,0.251s0.035,0.19,0.082,0.28c0.046,0.089,0.12,0.167,0.222,0.233c0.101,0.065,0.245,0.11,0.432,0.134
		c0.42,0.047,0.74,0.086,0.962,0.116c0.222,0.031,0.404,0.061,0.549,0.088c0.144,0.027,0.28,0.055,0.408,0.082
		s0.31,0.056,0.543,0.087c-0.07,0.521-0.125,1.047-0.164,1.575c-0.039,0.529-0.058,1.026-0.058,1.493
		c0,1.198,0.075,2.275,0.227,3.232c0.152,0.956,0.38,1.771,0.683,2.443c0.304,0.673,0.681,1.188,1.132,1.546
		c0.451,0.358,0.973,0.537,1.563,0.537c0.288,0,0.608-0.055,0.963-0.163c0.354-0.109,0.758-0.272,1.213-0.49s0.975-0.49,1.558-0.816
		c0.583-0.327,1.248-0.708,1.995-1.144v-2.987c-0.233,0.257-0.494,0.508-0.781,0.753C30.112,120.364,29.811,120.598,29.496,120.819z
		"/>
	<path fill="#3D4046" d="M45.184,120.819c-0.315,0.222-0.635,0.426-0.957,0.612c-0.323,0.187-0.63,0.349-0.922,0.484
		c-0.291,0.136-0.56,0.243-0.805,0.32c-0.245,0.078-0.449,0.117-0.612,0.117c-0.265,0-0.504-0.041-0.718-0.123
		c-0.214-0.081-0.395-0.214-0.543-0.396c-0.147-0.183-0.26-0.418-0.338-0.706c-0.02-0.072-0.029-0.161-0.044-0.242l-0.024,0.043
		c0,0-0.564-2.97-0.208-6.594c0,0,1.765,0.222,2.745,0.162l-0.001,0.017h3.365c0.188,0,0.358-0.086,0.514-0.257
		s0.233-0.393,0.233-0.665c0-0.226-0.035-0.412-0.104-0.561c-0.07-0.147-0.184-0.226-0.339-0.233
		c-0.132-0.008-0.3-0.016-0.502-0.023c-0.202-0.007-0.42-0.015-0.653-0.022s-0.475-0.018-0.723-0.029
		c-0.249-0.012-0.48-0.021-0.694-0.029s-0.402-0.014-0.566-0.018c-0.163-0.004-0.279-0.01-0.35-0.018
		c-0.669-0.043-1.913-0.21-1.913-0.21c-0.125-0.016-0.245-0.029-0.362-0.041c-0.116-0.012-0.233-0.025-0.35-0.041
		c0.14-0.63,0.293-1.279,0.461-1.948c0.167-0.669,0.346-1.281,0.536-1.837c0.091-0.266,0.184-0.505,0.278-0.726
		c0.354-0.947,0.206-1.629-0.417-1.896c-0.624-0.268-1.203,0.639-1.203,0.639c-0.4,0.766-0.762,1.641-1.085,2.625
		c-0.322,0.983-0.589,2-0.799,3.051c-0.078,0.016-0.22,0.021-0.426,0.018s-0.439-0.01-0.7-0.018s-0.533-0.01-0.816-0.006
		c-0.284,0.004-0.545,0.025-0.782,0.063c-0.236,0.039-0.432,0.1-0.583,0.182c-0.151,0.081-0.228,0.2-0.228,0.355
		c0,0.07,0.004,0.153,0.012,0.251s0.035,0.19,0.082,0.28c0.046,0.089,0.12,0.167,0.222,0.233c0.101,0.065,0.245,0.11,0.432,0.134
		c0.42,0.047,0.74,0.086,0.962,0.116c0.222,0.031,0.404,0.061,0.549,0.088c0.144,0.027,0.28,0.055,0.408,0.082
		s0.31,0.056,0.543,0.087c-0.07,0.521-0.125,1.047-0.164,1.575c-0.039,0.529-0.058,1.026-0.058,1.493
		c0,1.198,0.075,2.275,0.227,3.232c0.152,0.956,0.38,1.771,0.683,2.443c0.304,0.673,0.681,1.188,1.132,1.546
		c0.451,0.358,0.973,0.537,1.563,0.537c0.288,0,0.608-0.055,0.963-0.163c0.354-0.109,0.758-0.272,1.213-0.49s0.975-0.49,1.558-0.816
		c0.583-0.327,1.248-0.708,1.995-1.144v-2.987c-0.233,0.257-0.494,0.508-0.781,0.753C45.8,120.364,45.498,120.598,45.184,120.819z"
		/>
	<polygon fill="#3D4046" points="21.648,122.485 23.07,121.798 22.711,118.642 21.68,119.61 	"/>
	<polygon fill="#3D4046" points="37.617,122.798 38.57,122.157 38.164,120.267 	"/>
</g>
</svg>
