<?xml version="1.0" encoding="utf-8"?>
<!-- Generator: Adobe Illustrator 22.1.0, SVG Export Plug-In . SVG Version: 6.00 Build 0)  -->
<svg version="1.1" id="Calque_1" xmlns="http://www.w3.org/2000/svg" xmlns:xlink="http://www.w3.org/1999/xlink" x="0px" y="0px"
	 viewBox="0 0 168.6 62.1" style="enable-background:new 0 0 168.6 62.1;" xml:space="preserve">
<style type="text/css">
	.st0{fill:#FFFFFF;}
	.st1{fill-rule:evenodd;clip-rule:evenodd;fill:#00AEB3;}
</style>
<polygon class="st0" points="158.7,36.9 131.1,53.4 97.1,57.9 66.9,47.4 47.3,31 65.6,17.6 89.2,8.7 117.4,2.4 132,3.5 149.3,17.6 
	"/>
<g>
	<path class="st1" d="M132,3.5C125.8,1.4,118.4,0,109.4,0c-0.5,0-0.9,0-1.3,0C81.4,0.4,69.1,7.4,46.6,25.5c0,0-9.9-11-26.8-15.7
		c-1.9-0.6-3.6-0.9-5-1.2c-4-0.8-8.4-1.1-13-1c0,0-2.2,0.5-1.6,1.9c0.5,1.3,0.8,7.3,7.6,7.4c0.5,0,1,0,1.6,0c0.1,0,0.2,0,0.3,0
		c0.8,0,1.7,0,2.7,0.1c4.6,0.4,12.9,2.7,27.5,14C29.5,39,22.4,42.5,17.5,44c-3.8,0.6-7.1,1-8.9,1.2c-0.6,0-1.2,0-1.8,0.1l0,0.1
		c-0.1,0-0.1,0.1-0.1,0.1c-3.5,1-5.3,4.8-6,5.7c-0.8,1.1,0.6,2.2,0.6,2.2c21.5,5.2,45.2-15.8,45.2-15.8l0.2-1
		C69.1,54.7,81.4,61.7,108,62c0.4,0,0.9,0,1.3,0c11.6,0,20.7-2.3,27.9-5.6c19.6-8.4,31.4-24.2,31.4-24.2V30
		C158.7,14.5,143.4,7.1,132,3.5z M117.2,53c-2.4,0.3-5.1,0.4-7.9,0.4c-0.4,0-0.8,0-1.2,0C84.5,53,74.1,47.5,53.5,31
		c20.6-16.5,31-22,54.7-22.3c0.4,0,0.8,0,1.2,0c2.8,0,5.3,0.2,7.7,0.4l0.4,43.5C117.4,52.7,117.3,52.9,117.2,53z M142,40.4
		c2.3,0,4.4-1.1,5.6-2.9c-2.3,4-6.6,6.8-11.6,6.8c-7.4,0-13.3-6-13.3-13.4c0-7.4,6-13.4,13.3-13.4c7.4,0,13.4,6,13.4,13.4
		c0,1.3-0.2,2.5-0.5,3.6c0.1-0.4,0.1-0.7,0.1-1.1c0-3.9-3.1-7-7-7c-3.9,0-7,3.1-7,7C135,37.3,138.1,40.4,142,40.4z"/>
</g>
</svg>
