<?xml version="1.0" encoding="utf-8"?>
<!-- Generator: Adobe Illustrator 22.1.0, SVG Export Plug-In . SVG Version: 6.00 Build 0)  -->
<svg version="1.1" id="Calque_1" xmlns="http://www.w3.org/2000/svg" xmlns:xlink="http://www.w3.org/1999/xlink" x="0px" y="0px"
	 viewBox="0 0 37.2 37.2" style="enable-background:new 0 0 37.2 37.2;" xml:space="preserve">
<style type="text/css">
	.st0{fill:#F9B53F;}
</style>
<path class="st0" d="M18.6,0c-5,0-9.5,2-12.8,5.2L3.1,2.5C1.9,1.3,0,2.1,0,3.7v10.1c0,1,0.8,1.8,1.8,1.8h10.1c1.6,0,2.4-1.9,1.3-3.1
	L10,9.4C12.3,7.2,15.3,6,18.5,6c6.9-0.1,12.8,5.6,12.7,12.7c-0.1,6.8-5.6,12.5-12.6,12.5c-3.1,0-6-1.1-8.3-3.1
	c-0.4-0.3-0.9-0.3-1.2,0l-3,3c-0.4,0.4-0.3,1,0,1.3c3.3,3,7.7,4.8,12.5,4.8c10.3,0,18.6-8.3,18.6-18.6C37.2,8.3,28.8,0,18.6,0z"/>
</svg>
